<svg width="392" height="393" viewBox="0 0 392 393" fill="none" xmlns="http://www.w3.org/2000/svg">
<path d="M389.596 175.253C381.852 157.615 368.571 156.987 352.802 159.263C337.033 161.551 307.822 170.507 271.616 157.942C245.949 149.038 227.585 142.435 209.515 141.559L174.981 222.938V222.899C172.012 230.6 164.535 236.144 155.708 236.431C168.615 247.846 196.916 259.822 235.984 260.894C277.447 262.032 324.754 252.906 355.129 235.777C385.517 218.649 396.966 192.028 389.596 175.253ZM230.14 233.149C220.189 233.149 212.137 225.265 212.137 215.537C212.137 205.81 220.202 197.925 230.14 197.925C240.091 197.925 248.156 205.81 248.156 215.537C248.156 225.265 240.091 233.149 230.14 233.149Z" fill="#e9e9e9"/>
<path d="M0.0628738 86.7878C-39.3399 125.908 -60.8068 177.685 -60.3788 232.574C-59.9508 287.476 -37.668 338.926 2.33662 377.445C41.9534 415.585 94.2764 436.531 149.823 436.531C150.371 436.531 150.933 436.531 151.481 436.531C207.643 436.113 260.273 414.33 299.676 375.222C306.283 368.672 312.383 361.716 317.973 354.433L298.205 343.11C293.644 348.863 288.749 354.381 283.466 359.624C248.316 394.508 201.383 413.937 151.294 414.303C101.191 414.735 53.9775 395.959 18.2796 361.611C-17.4049 327.25 -37.2801 281.37 -37.6546 232.404C-38.0425 183.438 -18.9029 137.27 16.2466 102.373C47.8919 70.954 89.1136 52.0998 133.572 48.3865V26.0806C82.9745 29.8592 36.0015 51.093 0.0628738 86.7878Z" fill="#e9e9e9"/>
<path d="M50.8879 133.387C24.5391 159.55 10.1878 194.173 10.4686 230.874C10.7629 267.589 25.6493 301.989 52.4126 327.747C79.7511 354.067 115.409 367.194 151.053 367.194C187.42 367.194 223.773 353.518 251.245 326.256C253.372 324.138 255.418 321.968 257.384 319.732L237.362 308.265C236.6 309.063 235.837 309.873 235.048 310.645C189.453 355.91 114.687 356.473 68.3824 311.9C45.9525 290.313 33.4603 261.47 33.2195 230.691C32.9788 199.913 45.0029 170.899 67.0984 148.972C85.2616 130.942 108.44 119.501 133.599 115.853V93.4299C102.261 97.2085 73.3579 111.068 50.8879 133.387Z" fill="#e9e9e9"/>
<path d="M96.9781 176.992C67.406 206.359 67.7671 253.769 97.8074 282.677C112.212 296.55 131.232 304.16 151.428 304.16C151.628 304.16 151.829 304.16 152.03 304.16C169.845 304.029 186.671 297.975 200.193 287.005L178.686 274.689C170.634 279.33 161.446 281.854 151.856 281.932C137.504 282.063 123.982 276.676 113.75 266.844C92.6446 246.525 92.3905 213.21 113.162 192.591C118.993 186.812 125.948 182.523 133.572 179.908V156.778C119.796 159.969 107.17 166.872 96.9781 176.992Z" fill="#e9e9e9"/>
<path d="M165.472 215.498V215.08L165.685 214.347V11.1358C165.685 5.35669 160.897 0.675842 154.985 0.675842C149.074 0.675842 144.285 5.35669 144.285 11.1358V215.537C144.285 220.584 147.937 224.794 152.805 225.775C153.447 225.893 154.103 225.958 154.772 225.958C160.67 225.958 165.472 221.277 165.472 215.498Z" fill="#e9e9e9"/>
<path d="M165.685 215.537V214.348L165.471 215.08V215.498C165.471 221.277 160.683 225.958 154.771 225.958C154.103 225.958 153.447 225.893 152.805 225.775C153.514 225.919 154.236 225.997 154.985 225.997C160.897 225.997 165.685 221.317 165.685 215.537Z" fill="#e9e9e9"/>
<path d="M226.702 39.6263L179.542 11.9857C178.887 11.6066 178.071 11.5935 177.415 11.9596C176.747 12.3257 176.345 13.0187 176.345 13.7639V69.0581C176.345 69.8034 176.76 70.4964 177.415 70.8625C177.736 71.0455 178.097 71.137 178.459 71.137C178.833 71.137 179.208 71.0324 179.542 70.8363L226.702 43.1827C227.344 42.8035 227.732 42.1367 227.732 41.4045C227.732 40.6723 227.344 39.9924 226.702 39.6263Z" fill="#e9e9e9"/>
</svg>
