<svg width="145" height="138" viewBox="0 0 145 138" fill="none" xmlns="http://www.w3.org/2000/svg">
<path d="M143.75 55.2787C141.29 49.7141 137.069 49.5161 132.059 50.2339C127.048 50.9557 117.766 53.7814 106.261 49.8172C98.1053 47.0081 92.27 44.925 86.5283 44.6486L75.5548 70.3226V70.3102C74.6113 72.7399 72.2355 74.4889 69.4305 74.5796C73.5318 78.1807 82.5248 81.9592 94.939 82.2975C108.114 82.6564 123.146 79.7771 132.798 74.3734C142.454 68.9696 146.092 60.5711 143.75 55.2787ZM93.0818 73.5442C89.9198 73.5442 87.3613 71.0569 87.3613 67.9879C87.3613 64.9189 89.924 62.4315 93.0818 62.4315C96.2438 62.4315 98.8065 64.9189 98.8065 67.9879C98.8065 71.0569 96.2438 73.5442 93.0818 73.5442Z" fill="black"/>
<path d="M19.9732 27.369C7.45275 39.711 0.631498 56.046 0.767498 73.3627C0.903498 90.6836 7.984 106.915 20.6957 119.068C33.2842 131.1 49.9102 137.709 67.5605 137.709C67.7347 137.709 67.9132 137.709 68.0875 137.709C85.9332 137.577 102.657 130.704 115.177 118.366C117.277 116.3 119.215 114.105 120.991 111.808L114.71 108.235C113.261 110.05 111.705 111.791 110.026 113.445C98.8575 124.451 83.9442 130.581 68.028 130.696C52.1075 130.832 37.105 124.909 25.7617 114.072C14.4227 103.232 8.10725 88.7572 7.98825 73.3091C7.865 57.861 13.9467 43.2956 25.1157 32.286C35.1712 22.3736 48.2697 16.4254 62.3967 15.2539V8.21661C46.319 9.40874 31.393 16.1077 19.9732 27.369Z" fill="black"/>
<path d="M36.1232 42.0705C27.7508 50.3246 23.1905 61.2476 23.2798 72.8265C23.3733 84.4095 28.1035 95.2624 36.6077 103.389C45.2947 111.692 56.6252 115.834 67.9515 115.834C79.5072 115.834 91.0587 111.519 99.7882 102.918C100.464 102.25 101.114 101.565 101.739 100.86L95.3767 97.2424C95.1345 97.494 94.8922 97.7498 94.6415 97.9931C80.1532 112.274 56.3957 112.451 41.6822 98.3891C34.555 91.5788 30.5855 82.479 30.509 72.7688C30.4325 63.0585 34.2533 53.9051 41.2743 46.9875C47.0457 41.2991 54.411 37.6898 62.4052 36.5389V29.4645C52.4475 30.6566 43.2632 35.0291 36.1232 42.0705Z" fill="black"/>
<path d="M50.7688 55.8274C41.372 65.0921 41.4867 80.0494 51.0322 89.1698C55.6095 93.5464 61.653 95.9471 68.0705 95.9471C68.1343 95.9471 68.198 95.9471 68.2618 95.9471C73.9228 95.9059 79.2693 93.996 83.566 90.5351L76.732 86.6494C74.1735 88.1138 71.2538 88.9099 68.2065 88.9346C63.6463 88.9759 59.3495 87.2764 56.0982 84.1744C49.3917 77.7641 49.311 67.2536 55.9113 60.7485C57.7643 58.9253 59.9743 57.5723 62.3968 56.7473V49.4501C58.0193 50.4566 54.0073 52.6346 50.7688 55.8274Z" fill="black"/>
<path d="M72.533 67.9755V67.8435L72.601 67.6125V3.50175C72.601 1.6785 71.0795 0.201752 69.201 0.201752C67.3225 0.201752 65.801 1.6785 65.801 3.50175V67.9879C65.801 69.5801 66.9612 70.9084 68.5082 71.2178C68.7122 71.2549 68.9205 71.2755 69.133 71.2755C71.0072 71.2755 72.533 69.7988 72.533 67.9755Z" fill="black"/>
<path d="M72.601 67.9879V67.6125L72.533 67.8435V67.9755C72.533 69.7988 71.0115 71.2755 69.133 71.2755C68.9205 71.2755 68.7122 71.2549 68.5082 71.2178C68.7335 71.2631 68.963 71.2879 69.201 71.2879C71.0795 71.2879 72.601 69.8111 72.601 67.9879Z" fill="black"/>
<path d="M91.9895 12.4901L77.004 3.76988C76.7958 3.65025 76.5365 3.64613 76.3283 3.76163C76.1158 3.87713 75.9883 4.09575 75.9883 4.33088V21.7755C75.9883 22.0106 76.12 22.2293 76.3283 22.3448C76.4303 22.4025 76.545 22.4314 76.6598 22.4314C76.7788 22.4314 76.8978 22.3984 77.004 22.3365L91.9895 13.6121C92.1935 13.4925 92.3167 13.2821 92.3167 13.0511C92.3167 12.8201 92.1935 12.6056 91.9895 12.4901Z" fill="black"/>
</svg>
