<svg width="245" height="384" viewBox="0 0 245 384" fill="none" xmlns="http://www.w3.org/2000/svg">
<path d="M396.832 153.565C390.014 138.052 378.321 137.499 364.438 139.5C350.556 141.513 324.839 149.391 292.964 138.339C270.368 130.508 254.201 124.7 238.293 123.93L207.89 195.506V195.471C205.276 202.244 198.694 207.12 190.922 207.373C202.285 217.413 227.201 227.947 261.596 228.89C298.098 229.891 339.746 221.864 366.487 206.799C393.24 191.733 403.32 168.32 396.832 153.565ZM256.45 204.487C247.689 204.487 240.601 197.553 240.601 188.997C240.601 180.441 247.701 173.506 256.45 173.506C265.211 173.506 272.311 180.441 272.311 188.997C272.311 197.553 265.211 204.487 256.45 204.487Z" fill="#e9e9e9"/>
<path d="M53.8964 75.756C19.2073 110.164 0.308415 155.704 0.685215 203.981C1.06201 252.27 20.6792 297.522 55.8982 331.401C90.7757 364.947 136.84 383.37 185.741 383.37C186.224 383.37 186.718 383.37 187.201 383.37C236.644 383.002 282.979 363.843 317.668 329.446C323.485 323.685 328.854 317.567 333.776 311.161L316.373 301.202C312.358 306.262 308.048 311.115 303.397 315.727C272.452 346.409 231.134 363.498 187.036 363.82C142.927 364.199 101.361 347.685 69.934 317.475C38.5183 287.253 21.0206 246.899 20.6909 203.832C20.3495 160.764 37.1995 120.158 68.1442 89.464C96.0038 61.8295 132.294 45.2465 171.434 41.9805V22.3615C126.89 25.685 85.5359 44.361 53.8964 75.756Z" fill="#e9e9e9"/>
<path d="M98.6414 116.742C75.4447 139.753 62.8101 170.205 63.0574 202.486C63.3164 234.778 76.422 265.035 99.9838 287.69C124.052 310.839 155.444 322.385 186.824 322.385C218.841 322.385 250.845 310.356 275.031 286.378C276.903 284.516 278.705 282.607 280.436 280.64L262.808 270.554C262.137 271.256 261.466 271.969 260.771 272.647C220.63 312.46 154.808 312.955 114.043 273.751C94.2965 254.765 83.2986 229.396 83.0867 202.325C82.8747 175.254 93.4604 149.735 112.913 130.45C128.903 114.591 149.309 104.529 171.458 101.32V81.598C143.869 84.9215 118.423 97.1115 98.6414 116.742Z" fill="#e9e9e9"/>
<path d="M139.218 155.094C113.184 180.923 113.502 222.622 139.948 248.049C152.63 260.25 169.374 266.943 187.154 266.943C187.331 266.943 187.507 266.943 187.684 266.943C203.368 266.828 218.181 261.504 230.086 251.855L211.152 241.022C204.063 245.105 195.974 247.324 187.531 247.393C174.896 247.508 162.992 242.77 153.984 234.122C135.403 216.251 135.179 186.949 153.466 168.814C158.6 163.731 164.723 159.959 171.435 157.659V137.315C159.306 140.121 148.191 146.193 139.218 155.094Z" fill="#e9e9e9"/>
<path d="M199.518 188.962V188.594L199.706 187.95V9.217C199.706 4.134 195.491 0.0169983 190.286 0.0169983C185.082 0.0169983 180.866 4.134 180.866 9.217V188.997C180.866 193.436 184.081 197.139 188.367 198.001C188.932 198.105 189.509 198.162 190.098 198.162C195.291 198.162 199.518 194.045 199.518 188.962Z" fill="#e9e9e9"/>
<path d="M199.706 188.997V187.95L199.518 188.594V188.962C199.518 194.045 195.302 198.162 190.098 198.162C189.509 198.162 188.932 198.105 188.367 198.001C188.991 198.128 189.627 198.197 190.286 198.197C195.491 198.197 199.706 194.08 199.706 188.997Z" fill="#e9e9e9"/>
<path d="M253.424 34.2755L211.905 9.96448C211.328 9.63098 210.61 9.61948 210.033 9.94148C209.444 10.2635 209.091 10.873 209.091 11.5285V60.162C209.091 60.8175 209.456 61.427 210.033 61.749C210.316 61.91 210.633 61.9905 210.951 61.9905C211.281 61.9905 211.611 61.8985 211.905 61.726L253.424 37.4035C253.989 37.07 254.33 36.4835 254.33 35.8395C254.33 35.1955 253.989 34.5975 253.424 34.2755Z" fill="#e9e9e9"/>
</svg>
